<?xml version="1.0" encoding="UTF-8" standalone="no"?>
<svg viewBox="0 0 200 200" xmlns="http://www.w3.org/2000/svg">
    <polygon points="100,100 100,0 75,75 125,125 100,200 100,100 0,100 75,125 125,75 200,100"  fill="currentColor" stroke="currentColor" stroke-width="0.5"/>
    <polygon points="100,100 0,100 75,75 125,125 200,100 100,100 125,75 100,0 100,200 75,125"  fill="none" stroke="currentColor" stroke-width="0.5"/>
    <polygon points="50,50 75,75 64,78.7"  fill="currentColor" stroke="currentColor" stroke-width="0.5"/>
    <polygon points="50,50 75,75 78.7,64"  fill="none" stroke="currentColor" stroke-width="0.5"/>
    <polygon points="150,50 125,75 121.3,64"  fill="currentColor" stroke="currentColor" stroke-width="0.5"/>
    <polygon points="150,50 125,75 136,78.7"  fill="none" stroke="currentColor" stroke-width="0.5"/>
    <polygon points="50,150 75,125 64,121.3"  fill="none" stroke="currentColor" stroke-width="0.5"/>
    <polygon points="50,150 75,125 78.7,136"  fill="currentColor" stroke="currentColor" stroke-width="0.5"/>
    <polygon points="150,150 125,125 121.3,136"  fill="none" stroke="currentColor" stroke-width="0.5"/>
    <polygon points="150,150 125,125 136,121.3"  fill="currentColor" stroke="currentColor" stroke-width="0.5"/>
</svg>
